<svg xmlns="http://www.w3.org/2000/svg" viewBox="0 0 800 300" width="100%" height="100%">
  <style>
    @keyframes pulse {
      0% { opacity: 0.3; }
      50% { opacity: 0.9; }
      100% { opacity: 0.3; }
    }
    @keyframes sweep {
      from { transform: rotate(0deg); }
      to { transform: rotate(360deg); }
    }
    @keyframes ping {
      0% { r: 2px; opacity: 1; }
      100% { r: 250px; opacity: 0; }
    }
    @keyframes glitch {
      0% { transform: translate(0) }
      20% { transform: translate(-2px, 2px) }
      40% { transform: translate(-2px, -2px) }
      60% { transform: translate(2px, 2px) }
      80% { transform: translate(2px, -2px) }
      100% { transform: translate(0) }
    }
    .grid-line { stroke: #39FF14; stroke-width: 0.5; opacity: 0.15; }
    .radar-circle { stroke: #39FF14; stroke-width: 1; fill: none; opacity: 0.25; }
    .pulse-circle { stroke: #39FF14; stroke-width: 1.5; fill: none; transform-origin: 400px 150px; animation: ping 4s infinite linear; }
    .radar-sweep { fill: url(#radar-grad); transform-origin: 400px 150px; animation: sweep 6s infinite linear; }
    .node { fill: #39FF14; animation: pulse 2s infinite ease-in-out; }
    .text-glow { font-family: 'Courier New', Courier, monospace; fill: #39FF14; font-size: 11px; letter-spacing: 2px; }
    .glitch-text { animation: glitch 4s infinite step-end; }
  </style>
  <defs>
    <radialGradient id="radar-grad" cx="50%" cy="50%" r="50%">
      <stop offset="0%" stop-color="#39FF14" stop-opacity="0"/>
      <stop offset="90%" stop-color="#39FF14" stop-opacity="0.05"/>
      <stop offset="100%" stop-color="#39FF14" stop-opacity="0.3"/>
    </radialGradient>
  </defs>

  <!-- Background -->
  <rect width="800" height="300" fill="#0d0d0d"/>

  <!-- Grid Pattern -->
  <g>
    <!-- Vertical Lines -->
    <line x1="50" y1="0" x2="50" y2="300" class="grid-line" />
    <line x1="100" y1="0" x2="100" y2="300" class="grid-line" />
    <line x1="150" y1="0" x2="150" y2="300" class="grid-line" />
    <line x1="200" y1="0" x2="200" y2="300" class="grid-line" />
    <line x1="250" y1="0" x2="250" y2="300" class="grid-line" />
    <line x1="300" y1="0" x2="300" y2="300" class="grid-line" />
    <line x1="350" y1="0" x2="350" y2="300" class="grid-line" />
    <line x1="400" y1="0" x2="400" y2="300" class="grid-line" />
    <line x1="450" y1="0" x2="450" y2="300" class="grid-line" />
    <line x1="500" y1="0" x2="500" y2="300" class="grid-line" />
    <line x1="550" y1="0" x2="550" y2="300" class="grid-line" />
    <line x1="600" y1="0" x2="600" y2="300" class="grid-line" />
    <line x1="650" y1="0" x2="650" y2="300" class="grid-line" />
    <line x1="700" y1="0" x2="700" y2="300" class="grid-line" />
    <line x1="750" y1="0" x2="750" y2="300" class="grid-line" />
    <!-- Horizontal Lines -->
    <line x1="0" y1="50" x2="800" y2="50" class="grid-line" />
    <line x1="0" y1="100" x2="800" y2="100" class="grid-line" />
    <line x1="0" y1="150" x2="800" y2="150" class="grid-line" />
    <line x1="0" y1="200" x2="800" y2="200" class="grid-line" />
    <line x1="0" y1="250" x2="800" y2="250" class="grid-line" />
  </g>

  <!-- Radar Circles -->
  <circle cx="400" cy="150" r="40" class="radar-circle"/>
  <circle cx="400" cy="150" r="80" class="radar-circle"/>
  <circle cx="400" cy="150" r="120" class="radar-circle"/>
  <circle cx="400" cy="150" r="120" class="pulse-circle" style="animation-delay: 0s;"/>
  <circle cx="400" cy="150" r="120" class="pulse-circle" style="animation-delay: 2s;"/>

  <!-- Radar Crosshairs -->
  <line x1="250" y1="150" x2="550" y2="150" stroke="#39FF14" stroke-width="0.5" opacity="0.4"/>
  <line x1="400" y1="10" x2="400" y2="290" stroke="#39FF14" stroke-width="0.5" opacity="0.4"/>

  <!-- Radar Sweep -->
  <path d="M 400 150 L 400 30 A 120 120 0 0 1 503.9 90 Z" class="radar-sweep"/>

  <!-- Target Nodes -->
  <circle cx="340" cy="100" r="4" class="node" style="animation-delay: 0.5s;"/>
  <circle cx="480" cy="180" r="3" class="node" style="animation-delay: 1.2s;"/>
  <circle cx="430" cy="80" r="5" class="node" style="animation-delay: 2.1s;"/>
  <circle cx="320" cy="200" r="3" class="node" style="animation-delay: 1.7s;"/>

  <!-- Coordinates & Data Displays -->
  <text x="30" y="40" class="text-glow glitch-text">SECURE LINK: ACTIVE</text>
  <text x="30" y="60" class="text-glow" opacity="0.6">SYS_INTEGRITY: 98.42%</text>
  <text x="30" y="80" class="text-glow" opacity="0.6">SCANNING FOR INTRUSIONS...</text>

  <text x="580" y="40" class="text-glow">AZIMUTH: 184.22°</text>
  <text x="580" y="60" class="text-glow" opacity="0.6">RANGE: 4200m</text>
  <text x="580" y="80" class="text-glow" opacity="0.6">NODES ONLINE: 14</text>

  <!-- Status Box -->
  <rect x="30" y="230" width="220" height="40" fill="none" stroke="#39FF14" stroke-width="1" opacity="0.7"/>
  <text x="40" y="254" class="text-glow" font-weight="bold">THREAT LEVEL: NEUTRALIZED</text>

  <rect x="550" y="230" width="220" height="40" fill="none" stroke="#39FF14" stroke-width="1" opacity="0.7"/>
  <text x="560" y="254" class="text-glow" font-weight="bold">DECRYPTING LOGS...</text>
</svg>
